<svg width="226" height="26" viewBox="0 0 226 26" xmlns="http://www.w3.org/2000/svg"><g fill="none"><path fill="#009BA3" d="M182.034 13l-3.66-3.746-8.81-9.166-3.66 3.79L174.756 13l-8.852 9.166 3.66 3.746 8.81-9.166z"/><path fill="#007480" d="M182.053 13.072l-3.643 3.64-3.77-3.772 3.643-3.64z"/><path d="M.383 4.407H4.3l4.383 7.271 4.342-7.271h3.915v17.186h-3.617V10.356l-4.682 7.36h-.085l-4.597-7.272v11.15H.383zm21.451 0h3.66v17.186h-3.66zm7.789 8.637V13c0-4.892 3.575-8.902 8.64-8.902 3.15 0 5.022 1.102 6.554 2.644l-2.34 2.777c-1.278-1.19-2.597-1.94-4.257-1.94-2.81 0-4.81 2.424-4.81 5.333v.044c0 2.952 1.958 5.42 4.81 5.42 1.915 0 3.064-.793 4.384-2.027l2.34 2.424c-1.702 1.895-3.617 3.085-6.81 3.085-4.894.044-8.511-3.878-8.511-8.814zm18.939-8.637h7.576c2.128 0 3.746.617 4.852 1.762.937.97 1.405 2.292 1.405 3.923v.044c0 2.776-1.447 4.539-3.575 5.332l4.043 6.125h-4.256l-3.575-5.508H52.18v5.508h-3.66V4.407h.042zm7.363 8.329c1.788 0 2.81-.97 2.81-2.424v-.044c0-1.63-1.107-2.468-2.852-2.468h-3.618v4.936h3.66zm9.747.308V13c0-4.892 3.703-8.902 8.853-8.902 5.107 0 8.81 3.966 8.81 8.858V13c0 4.892-3.703 8.902-8.853 8.902-5.107 0-8.81-3.966-8.81-8.858zm13.832 0V13c0-2.953-2.085-5.42-5.022-5.42-2.937 0-4.98 2.423-4.98 5.332v.044c0 2.952 2.086 5.42 5.023 5.42 2.936 0 4.98-2.38 4.98-5.332zm7.789-8.637h3.916l4.383 7.271 4.342-7.271h3.915v17.186h-3.617V10.356l-4.682 7.36h-.085l-4.64-7.272v11.15H87.25V4.406zm26.984-.132h3.362l7.108 17.318h-3.83l-1.533-3.834h-7.022l-1.533 3.834h-3.702l7.15-17.318zm3.83 10.135l-2.213-5.596-2.213 5.552h4.426v.044zm11.62-6.522h-5.023V4.407h13.748v3.481h-5.065v13.705h-3.66zm15.79-3.613h3.362l7.108 17.318h-3.83l-1.533-3.834h-7.022l-1.533 3.834h-3.703l7.15-17.318zm3.83 10.135l-2.213-5.596-2.213 5.552h4.426v.044z" fill="#000"/><path fill="#FFCB00" d="M198.633.088l-3.66 3.79L203.826 13l-8.853 9.166 3.66 3.746L211.103 13z"/><path fill="#75BE01" d="M225.617 13l-3.618-3.746-8.852-9.166-3.618 3.79 8.81 9.122-8.81 9.166 3.618 3.746 8.852-9.166z"/><path fill="#32912E" d="M225.672 13.057l-3.643 3.64-3.77-3.772 3.643-3.64z"/><path fill="#E10057" d="M184.077.088l-3.617 3.79L189.27 13l-8.81 9.166 3.617 3.746 8.853-9.166L196.548 13z"/><path fill="#A70836" d="M196.603 13.055l-3.642 3.642-3.77-3.77 3.64-3.642z"/><path fill="#FF9D01" d="M211.121 13.072l-3.641 3.642-3.771-3.77 3.641-3.642z"/></g></svg>